<svg width="107" height="107" viewBox="0 0 107 107" fill="none" xmlns="http://www.w3.org/2000/svg">
<circle cx="53.5" cy="53.5" r="53.5" fill="#4754F0"/>
<rect x="40" y="46" width="45" height="32" fill="white"/>
<path d="M36 50L40 45.5L44 50V55.6889H36V50Z" fill="white"/>
<path d="M79.5 50L83.5 47L87.5 50V55.6889H79.5V50Z" fill="white"/>
<rect x="48" y="31" width="28" height="14" fill="white"/>
<path d="M51.4173 65.8469H43.3553C42.7192 65.8469 42.2035 66.3625 42.2035 66.9986V73.909C42.2035 74.5451 42.7192 75.0607 43.3553 75.0607H51.4173C52.0534 75.0607 52.569 74.5451 52.569 73.909V66.9986C52.569 66.3625 52.0534 65.8469 51.4173 65.8469ZM50.2656 72.7572H44.507V68.1504H50.2656V72.7572Z" fill="#37325D"/>
<path d="M59.4794 67.5745H54.2966V69.8779H59.4794V67.5745Z" fill="#37325D"/>
<path d="M67.5414 71.0296H54.2966V73.3331H67.5414V71.0296Z" fill="#37325D"/>
<path d="M81.3621 72.1814H76.7552V74.4848H81.3621V72.1814Z" fill="#37325D"/>
<path d="M81.3621 68.7262H76.7552V71.0296H81.3621V68.7262Z" fill="#37325D"/>
<path d="M89.9289 55.6591L85.8979 44.7178C85.7311 44.265 85.2998 43.9642 84.8172 43.9642H77.9069V30.1435C77.9069 29.5074 77.3913 28.9918 76.7552 28.9918H46.8104C46.1743 28.9918 45.6587 29.5074 45.6587 30.1435V43.9642H38.7484C38.2734 43.9642 37.8471 44.2558 37.675 44.6985L33.6439 55.064C33.5061 55.4184 33.552 55.8179 33.7667 56.1317C33.9814 56.4455 34.3372 56.6331 34.7173 56.6331H37.5966V78.5158C37.5966 79.1519 38.1123 79.6676 38.7484 79.6676H84.8172C85.4533 79.6676 85.969 79.1519 85.969 78.5158V57.209H88.8483C89.2248 57.209 89.5775 57.0249 89.793 56.7161C90.0084 56.4072 90.0592 56.0125 89.9289 55.6591ZM47.9621 31.2952H66.3897V34.7504H47.9621V31.2952ZM47.9621 37.0539H66.3897V43.9642H47.9621V37.0539ZM36.401 54.3297L39.5363 46.2676H71.6163L68.4811 54.3297H36.401ZM72.1483 77.3641H39.9001V56.6331H69.269C69.744 56.6331 70.1702 56.3415 70.3424 55.8989L72.1483 51.2552V77.3641ZM68.6931 43.9642V31.2952H75.6035V43.9642H73.3H68.6931ZM83.6655 77.3641H74.4517V50.2377L77.4418 56.5503C77.6325 56.9526 78.0376 57.209 78.4828 57.209H83.6655V77.3641ZM79.2116 54.9055L75.12 46.2676H84.0141L87.1965 54.9055H79.2116Z" fill="#37325D"/>
<path d="M73.8759 33.5987H70.4207V35.9021H73.8759V33.5987Z" fill="#37325D"/>
<path d="M73.8759 37.0539H70.4207V39.3573H73.8759V37.0539Z" fill="#37325D"/>
<path d="M49.774 41.9527C49.774 48.0843 44.8034 53.055 38.6718 53.055C32.5401 53.055 26.9527 48.0843 26.9527 41.9527C26.9527 35.8211 32.5401 30.2336 38.6718 30.2336C44.8034 30.2336 49.774 35.8211 49.774 41.9527Z" fill="white"/>
<path d="M14.5868 63.104L16.896 65.4132C17.2008 65.718 17.6886 65.718 17.9934 65.4132L29.364 54.0426L25.9574 50.636L14.5868 62.0066C14.282 62.3114 14.282 62.7992 14.5868 63.104Z" fill="white"/>
<path d="M45.8939 41.4527C45.8939 37.3983 42.594 34.0984 38.5397 34.0984C38.1586 34.0984 37.8461 34.4109 37.8461 34.792C37.8461 35.173 38.1586 35.4855 38.5397 35.4855C41.8319 35.4855 44.5069 38.1604 44.5069 41.4527C44.5069 41.8338 44.8194 42.1462 45.2004 42.1462C45.5891 42.1462 45.8939 41.8338 45.8939 41.4527Z" fill="black"/>
<path d="M29.8517 54.5304C30.1184 54.2636 30.1184 53.8216 29.8517 53.5549L28.64 52.3432L30.248 50.7351C32.4505 52.709 35.3617 53.9131 38.5473 53.9131C45.4138 53.9131 51 48.3269 51 41.4604C51 34.5938 45.4138 29 38.5473 29C31.6807 29 26.0945 34.5862 26.0945 41.4527C26.0945 44.6383 27.2987 47.5419 29.2725 49.752L27.6645 51.36L26.4527 50.1483C26.3232 50.0187 26.1479 49.9425 25.965 49.9425C25.7821 49.9425 25.6068 50.0187 25.4772 50.1483L14.663 60.9625C14.2363 61.3893 14 61.9532 14 62.5553C14 63.1574 14.2363 63.7213 14.663 64.1481L15.8595 65.3446C16.2863 65.7714 16.8503 66.0076 17.4523 66.0076C18.0544 66.0076 18.6183 65.7714 19.0451 65.3446L29.8517 54.5304ZM38.5473 30.387C44.6517 30.387 49.6206 35.3559 49.6206 41.4604C49.6206 47.5648 44.6517 52.5337 38.5473 52.5337C32.4428 52.5337 27.4739 47.5648 27.4739 41.4604C27.4739 35.3559 32.4428 30.387 38.5473 30.387ZM16.8274 64.3691L15.6309 63.1726C15.4632 63.0049 15.3718 62.7916 15.3718 62.5553C15.3718 62.3191 15.4632 62.1057 15.6309 61.938L25.9574 51.6115L28.3885 54.0426L18.062 64.3691C17.8943 64.5368 17.6809 64.6282 17.4447 64.6282C17.2084 64.6282 16.9874 64.5291 16.8274 64.3691Z" fill="#37325D"/>
</svg>
