<svg width="88" height="80" viewBox="0 0 88 80" fill="none" xmlns="http://www.w3.org/2000/svg">
<path d="M69.1964 63.096C68.8665 63.096 68.604 62.9911 68.4091 62.7811C68.2291 62.5562 68.1391 62.2562 68.1391 61.8813C68.1391 61.2364 68.2591 60.6366 68.499 60.0817C68.739 59.5268 69.1514 58.9344 69.7363 58.3046C70.1562 57.8547 70.4486 57.4722 70.6136 57.1573C70.7786 56.8274 70.861 56.4899 70.861 56.145C70.861 55.7251 70.7036 55.3952 70.3886 55.1552C70.0887 54.9153 69.6538 54.7953 69.0839 54.7953C68.544 54.7953 68.0416 54.8628 67.5767 54.9978C67.1268 55.1327 66.6844 55.3277 66.2495 55.5826C65.7546 55.8376 65.3347 55.9051 64.9898 55.7851C64.6449 55.6501 64.3974 55.4102 64.2474 55.0653C64.1125 54.7203 64.1125 54.3529 64.2474 53.963C64.3974 53.5731 64.7123 53.2431 65.1922 52.9732C65.8071 52.6283 66.482 52.3658 67.2168 52.1859C67.9667 51.9909 68.6715 51.8934 69.3314 51.8934C70.3212 51.8934 71.191 52.0584 71.9408 52.3883C72.6907 52.7033 73.268 53.1532 73.6729 53.738C74.0929 54.3079 74.3028 54.9753 74.3028 55.7401C74.3028 56.43 74.1453 57.0673 73.8304 57.6522C73.5305 58.2371 72.9906 58.8519 72.2108 59.4968C71.5059 60.0817 71.026 60.5841 70.7711 61.004C70.5161 61.4089 70.3511 61.8438 70.2762 62.3087C70.2312 62.5487 70.1187 62.7436 69.9387 62.8936C69.7738 63.0286 69.5263 63.096 69.1964 63.096ZM69.1514 68.1125C68.5515 68.1125 68.0716 67.9325 67.7117 67.5726C67.3668 67.2127 67.1943 66.7478 67.1943 66.1779C67.1943 65.623 67.3668 65.1731 67.7117 64.8282C68.0716 64.4683 68.5515 64.2883 69.1514 64.2883C69.7513 64.2883 70.2162 64.4683 70.5461 64.8282C70.891 65.1731 71.0635 65.623 71.0635 66.1779C71.0635 66.7478 70.891 67.2127 70.5461 67.5726C70.2162 67.9325 69.7513 68.1125 69.1514 68.1125Z" fill="#DEDEE9"/>
<path d="M85.0667 50.0192V1.46667C85.0667 0.6556 84.4096 0 83.6 0H1.46667C0.657067 0 0 0.6556 0 1.46667V66C0 66.8111 0.657067 67.4667 1.46667 67.4667H51.3377C54.2168 74.3497 61.0177 79.2 68.9333 79.2C79.4464 79.2 88 70.6464 88 60.1333C88 56.4153 86.9147 52.954 85.0667 50.0192ZM50.3932 64.5333H2.93333V2.93333H82.1333V46.3789C81.884 46.1384 81.6141 45.9228 81.3531 45.6969C81.224 45.5869 81.1023 45.4696 80.9703 45.3625C80.6256 45.0809 80.2663 44.8199 79.9025 44.5632C79.7676 44.4679 79.6371 44.3652 79.4992 44.2728C79.1399 44.0337 78.7688 43.8152 78.3933 43.6011C78.2335 43.5087 78.0795 43.4104 77.9167 43.3239C77.8037 43.2637 77.6908 43.2021 77.5764 43.1435C77.8389 42.5788 77.7407 41.8939 77.2567 41.4509L59.6567 25.3176C59.3692 25.0551 58.9937 24.9113 58.6007 24.9333C58.212 24.9509 57.8453 25.1225 57.5828 25.41L43.2183 41.1429L36.2619 34.1865C35.7133 33.6395 34.8363 33.6131 34.2555 34.122L9.2972 56.0985C8.68853 56.6339 8.62987 57.5608 9.1652 58.1695C9.4556 58.4995 9.8604 58.6667 10.2667 58.6667C10.6099 58.6667 10.956 58.5464 11.2347 58.3015L35.1604 37.2372L50.27 52.3453C50.5677 52.6431 50.9593 52.778 51.3495 52.7663C50.3961 55.0337 49.8667 57.5227 49.8667 60.1333C49.8667 60.8564 49.9151 61.5663 49.9943 62.2688C50.0075 62.3788 50.0295 62.4873 50.0441 62.5973C50.1263 63.2251 50.2363 63.8425 50.3771 64.4483C50.3844 64.4761 50.3859 64.5055 50.3932 64.5333ZM71.5425 41.2661C71.3049 41.2339 71.0717 41.1855 70.8312 41.162C70.2049 41.1004 69.5713 41.0667 68.9333 41.0667C61.9329 41.0667 55.8184 44.8697 52.5023 50.5076C52.4495 50.4284 52.4143 50.3404 52.3453 50.27L45.2951 43.2197L58.7605 28.4739L72.9784 41.5081C72.8801 41.4861 72.7833 41.4612 72.6851 41.4421C72.3081 41.3659 71.9239 41.3189 71.5425 41.2661ZM68.9333 76.2667C61.9124 76.2667 55.9401 71.7493 53.7284 65.4749C53.5905 65.0833 53.4703 64.6888 53.3632 64.2928C53.3412 64.2077 53.3192 64.1241 53.2972 64.0391C53.2092 63.69 53.1329 63.3409 53.0684 62.9889C53.0332 62.7939 53.0068 62.5973 52.9789 62.4008C52.9408 62.1368 52.8997 61.8728 52.8748 61.6088C52.8308 61.1219 52.8 60.6305 52.8 60.1333C52.8 51.238 60.038 44 68.9333 44C69.5581 44 70.1771 44.0455 70.7887 44.1159C70.9749 44.1379 71.1553 44.1731 71.3387 44.1995C71.7655 44.264 72.1879 44.3403 72.6044 44.4371C72.8112 44.4855 73.0165 44.5397 73.2219 44.5955C73.6149 44.704 74.0007 44.8287 74.3835 44.9665C74.58 45.0369 74.778 45.1044 74.9701 45.1821C75.4028 45.3567 75.8252 45.5561 76.2403 45.7673C76.362 45.8289 76.4896 45.8803 76.6099 45.9448C77.1115 46.2161 77.594 46.5212 78.0648 46.8453C78.2569 46.9773 78.4388 47.124 78.6251 47.2648C78.9169 47.4848 79.2044 47.7121 79.4816 47.9527C79.6679 48.114 79.8497 48.2812 80.0287 48.4499C80.3117 48.7197 80.5845 49.0028 80.8485 49.2932C80.9864 49.4443 81.1287 49.5895 81.2607 49.7464C81.6435 50.2025 82.0087 50.6763 82.3445 51.1779C84.062 53.7431 85.0667 56.8231 85.0667 60.1333C85.0667 69.0287 77.8287 76.2667 68.9333 76.2667Z" fill="#DEDEE9"/>
<path d="M23.4667 32.4692C27.9708 32.4692 31.6346 28.8054 31.6346 24.3028C31.6346 19.7972 27.9708 16.1334 23.4667 16.1334C18.9626 16.1334 15.2988 19.7972 15.2988 24.3013C15.2988 28.8054 18.9626 32.4692 23.4667 32.4692ZM23.4667 19.0668C26.3531 19.0668 28.7012 21.4164 28.7012 24.3013C28.7012 27.1862 26.3531 29.5358 23.4667 29.5358C20.5803 29.5358 18.2322 27.1877 18.2322 24.3028C18.2322 21.4178 20.5803 19.0668 23.4667 19.0668Z" fill="#DEDEE9"/>
</svg>
